<svg width="61" height="61" viewBox="0 0 61 61" fill="none" xmlns="http://www.w3.org/2000/svg">
<path fill-rule="evenodd" clip-rule="evenodd" d="M0.03125 30.5C0.03125 13.6719 13.6719 0.03125 30.5 0.03125C47.3281 0.03125 60.9688 13.6719 60.9688 30.5C60.9688 47.3281 47.3281 60.9688 30.5 60.9688C13.6719 60.9688 0.03125 47.3281 0.03125 30.5ZM21.125 18.7812C20.5034 18.7812 19.9073 19.0282 19.4677 19.4677C19.0282 19.9073 18.7812 20.5034 18.7812 21.125V39.875C18.7812 41.1688 19.8312 42.2188 21.125 42.2188H23.4688C24.0904 42.2188 24.6865 41.9718 25.126 41.5323C25.5656 41.0927 25.8125 40.4966 25.8125 39.875V21.125C25.8125 20.5034 25.5656 19.9073 25.126 19.4677C24.6865 19.0282 24.0904 18.7812 23.4688 18.7812H21.125ZM37.5312 18.7812C36.9096 18.7812 36.3135 19.0282 35.874 19.4677C35.4344 19.9073 35.1875 20.5034 35.1875 21.125V39.875C35.1875 41.1688 36.2375 42.2188 37.5312 42.2188H39.875C40.4966 42.2188 41.0927 41.9718 41.5323 41.5323C41.9718 41.0927 42.2188 40.4966 42.2188 39.875V21.125C42.2188 20.5034 41.9718 19.9073 41.5323 19.4677C41.0927 19.0282 40.4966 18.7812 39.875 18.7812H37.5312Z" fill="white"/>
</svg>
