<svg width="61" height="61" viewBox="0 0 61 61" fill="none" xmlns="http://www.w3.org/2000/svg">
<path fill-rule="evenodd" clip-rule="evenodd" d="M0.03125 30.5C0.03125 13.6719 13.6719 0.03125 30.5 0.03125C47.3281 0.03125 60.9688 13.6719 60.9688 30.5C60.9688 47.3281 47.3281 60.9688 30.5 60.9688C13.6719 60.9688 0.03125 47.3281 0.03125 30.5ZM43.8563 27.4281C44.4037 27.7328 44.8597 28.1782 45.1772 28.7183C45.4947 29.2584 45.6621 29.8735 45.6621 30.5C45.6621 31.1265 45.4947 31.7416 45.1772 32.2817C44.8597 32.8218 44.4037 33.2672 43.8563 33.5719L26.3469 43.3C25.8118 43.597 25.2086 43.7492 24.5967 43.7415C23.9848 43.7339 23.3855 43.5667 22.8581 43.2564C22.3306 42.9461 21.8933 42.5035 21.5893 41.9724C21.2854 41.4413 21.1253 40.8401 21.125 40.2281V20.7719C21.125 18.0938 24.0031 16.3969 26.3469 17.7L43.8563 27.4281Z" fill="white"/>
</svg>
