<svg width="123" height="34" viewBox="0 0 123 34" fill="none" xmlns="http://www.w3.org/2000/svg">
<g clip-path="url(#clip0_11_49)">
<path d="M18.7489 0.494403C9.72991 0.135915 2.12999 7.15629 1.7715 16.1752C1.41301 25.1942 8.43488 32.7941 17.4523 33.1526C26.4713 33.5111 34.0712 26.4907 34.4297 17.4718C34.7867 8.45282 27.7663 0.851396 18.7489 0.494403ZM25.6467 24.4354C25.4436 24.7939 25.0478 24.9731 24.6624 24.9193C24.5444 24.9029 24.4264 24.8641 24.3159 24.8013C22.156 23.572 19.8019 22.7714 17.3194 22.4219C14.8369 22.0724 12.3528 22.1933 9.93754 22.7804C9.41325 22.9073 8.88598 22.5862 8.75901 22.0619C8.63205 21.5376 8.95319 21.0103 9.47748 20.8834C12.1333 20.2381 14.8637 20.1052 17.5912 20.489C20.3187 20.8729 22.9058 21.7527 25.2823 23.1045C25.7498 23.3719 25.9141 23.9664 25.6482 24.4354H25.6467ZM27.7947 20.1455C27.4616 20.7609 26.6908 20.9909 26.0754 20.6578C23.5481 19.2911 20.8116 18.3934 17.9423 17.9901C15.0729 17.5868 12.196 17.6958 9.38935 18.3127C9.23699 18.3456 9.08613 18.3516 8.93975 18.3306C8.4304 18.2589 7.99424 17.8795 7.87773 17.3463C7.72687 16.6622 8.16004 15.9855 8.84415 15.8347C11.9466 15.1521 15.1266 15.0311 18.2963 15.4762C21.4644 15.9213 24.4891 16.9131 27.2823 18.4247C27.8992 18.7578 28.1278 19.5271 27.7947 20.144V20.1455ZM30.1756 15.3089C29.862 15.9123 29.2092 16.2245 28.5729 16.1349C28.4011 16.111 28.2323 16.0572 28.0695 15.9736C25.1269 14.4425 21.9573 13.4313 18.6488 12.9668C15.3402 12.5022 12.0138 12.6008 8.76349 13.261C7.91806 13.4328 7.09503 12.8861 6.92326 12.0422C6.75148 11.1967 7.29818 10.3737 8.14211 10.2019C11.7419 9.47152 15.4224 9.36248 19.0834 9.87632C22.7445 10.3901 26.2517 11.5104 29.5109 13.2058C30.2757 13.6031 30.573 14.5456 30.1756 15.3104V15.3089Z" fill="white"/>
<path d="M47.5802 25.3645C44.7616 25.3645 42.3418 24.3891 41.3306 23.2808C41.235 23.1717 41.2216 23.112 41.2216 22.979V19.6795C41.2216 19.5226 41.3545 19.4629 41.462 19.5958C42.6779 21.1134 45.268 22.3532 47.3875 22.3532C49.0739 22.3532 50.2061 21.8961 50.2061 20.4024C50.2061 19.5107 49.7849 18.9326 47.4846 18.2829L46.1597 17.9094C43.0887 17.0431 41.2216 16.0184 41.2216 13.0803C41.2216 10.4798 43.6294 8.19143 47.6519 8.19143C49.6266 8.19143 51.5893 8.80534 52.7215 9.64928C52.8171 9.72098 52.8545 9.79417 52.8545 9.92562V12.925C52.8545 13.1296 52.6857 13.1893 52.5289 13.0579C51.6132 12.2991 49.8432 11.2759 47.7475 11.2759C45.6519 11.2759 44.6645 12.2155 44.6645 13.0818C44.6645 13.9974 45.3023 14.2499 47.5787 14.925L48.711 15.2626C52.2152 16.3097 53.6491 17.7795 53.6491 20.2127C53.6491 23.3435 51.0486 25.3675 47.5802 25.3675V25.3645ZM72.1351 19.0775C72.1351 17.1626 73.46 15.7421 75.3272 15.7421C77.1943 15.7421 78.5057 17.1626 78.5057 19.0775C78.5057 20.9924 77.1808 22.4129 75.3272 22.4129C73.4735 22.4129 72.1351 20.9924 72.1351 19.0775ZM75.3137 25.3645C79.2033 25.3645 81.9129 22.5832 81.9129 19.0775C81.9129 15.5718 79.2033 12.7905 75.3137 12.7905C71.4241 12.7905 68.7265 15.5479 68.7265 19.0775C68.7265 22.6071 71.4122 25.3645 75.3137 25.3645ZM98.7976 12.0691V13.0803H96.7498C96.6407 13.0803 96.581 13.1401 96.581 13.2491V15.6569C96.581 15.766 96.6407 15.8257 96.7498 15.8257H98.7976V24.9059C98.7976 25.015 98.8574 25.0747 98.9664 25.0747H102.049C102.158 25.0747 102.218 25.015 102.218 24.9059V15.8257H104.856L108.686 24.1471L106.626 28.6745C106.566 28.8075 106.638 28.8672 106.759 28.8672H110.047C110.156 28.8672 110.203 28.8433 110.251 28.7343L117.055 13.2715C117.103 13.1625 117.043 13.0788 116.922 13.0788H113.839C113.73 13.0788 113.682 13.1027 113.635 13.2118L110.528 20.6788L107.409 13.2118C107.361 13.1027 107.313 13.0788 107.204 13.0788H102.218V12.2842C102.218 10.9832 103.098 10.3812 104.229 10.3812C104.902 10.3812 105.637 10.7307 106.156 11.0429C106.277 11.1146 106.36 11.031 106.312 10.9219L105.228 8.33334C105.192 8.24969 105.144 8.2004 105.059 8.1526C104.529 7.87626 103.663 7.63428 102.819 7.63428C100.266 7.63428 98.7961 9.58505 98.7961 12.0661L98.7976 12.0691ZM62.5008 25.2913C65.5838 25.2913 67.7989 22.6295 67.7989 19.0536C67.7989 15.4777 65.5584 12.8637 62.4754 12.8637C60.187 12.8637 58.8621 14.2603 58.0914 15.6569V13.2491C58.0914 13.1401 58.0316 13.0803 57.9226 13.0803H54.8993C54.7903 13.0803 54.7306 13.1401 54.7306 13.2491V28.6999C54.7306 28.8089 54.7903 28.8687 54.8993 28.8687H57.9226C58.0316 28.8687 58.0914 28.8089 58.0914 28.6999V22.522C58.8621 23.9186 60.1631 25.2913 62.4993 25.2913H62.5008ZM88.2237 25.2435C89.235 25.2435 90.2104 24.9791 90.7884 24.6415C90.8721 24.5937 90.884 24.5459 90.884 24.4608V22.1724C90.884 22.0515 90.8243 22.0156 90.7152 22.0769C90.3657 22.2695 89.9086 22.4264 89.2828 22.4264C88.2954 22.4264 87.6696 21.8483 87.6696 20.5712V15.8257H90.6809C90.7899 15.8257 90.8497 15.766 90.8497 15.6569V13.2491C90.8497 13.1401 90.7899 13.0803 90.6809 13.0803H87.6696V9.93757C87.6696 9.80463 87.5859 9.73293 87.4649 9.82853L82.0817 14.0676C82.01 14.1274 81.9861 14.1886 81.9861 14.2842V15.6569C81.9861 15.766 82.0458 15.8257 82.1549 15.8257H84.2505V21.0761C84.2505 23.9186 85.8876 25.2435 88.2252 25.2435H88.2237ZM91.7041 9.51634C91.7041 10.6008 92.5465 11.4193 93.7026 11.4193C94.8587 11.4193 95.7251 10.6008 95.7251 9.51634C95.7251 8.43192 94.8826 7.61337 93.7026 7.61337C92.5226 7.61337 91.7041 8.43192 91.7041 9.51634ZM92.1731 25.0762H95.2561C95.3651 25.0762 95.4249 25.0164 95.4249 24.9074V13.2506C95.4249 13.1415 95.3651 13.0818 95.2561 13.0818H92.1731C92.064 13.0818 92.0043 13.1415 92.0043 13.2506V24.9074C92.0043 25.0164 92.064 25.0762 92.1731 25.0762ZM58.0197 19.0312C58.5738 17.176 59.8495 15.7555 61.5836 15.7555C63.3178 15.7555 64.3769 17.0072 64.3769 19.0551C64.3769 21.103 63.2327 22.3786 61.5836 22.3786C59.9346 22.3786 58.5723 20.7893 58.0197 19.0312Z" fill="white"/>
<path d="M121.004 13.7883C120.846 13.515 120.626 13.3014 120.346 13.146C120.065 12.9922 119.751 12.9145 119.402 12.9145C119.052 12.9145 118.738 12.9922 118.458 13.146C118.177 13.3014 117.957 13.515 117.799 13.7883C117.641 14.0617 117.561 14.3709 117.561 14.7159C117.561 15.061 117.641 15.3642 117.799 15.6375C117.957 15.9109 118.177 16.1245 118.458 16.2798C118.738 16.4352 119.052 16.5113 119.402 16.5113C119.751 16.5113 120.065 16.4337 120.346 16.2798C120.626 16.126 120.846 15.9109 121.004 15.6375C121.163 15.3642 121.242 15.058 121.242 14.7159C121.242 14.3739 121.163 14.0617 121.004 13.7883ZM120.716 15.4852C120.588 15.7122 120.408 15.8885 120.18 16.0169C119.951 16.1439 119.691 16.2081 119.403 16.2081C119.115 16.2081 118.847 16.1439 118.619 16.0169C118.39 15.89 118.213 15.7122 118.086 15.4852C117.959 15.2596 117.896 15.0027 117.896 14.7159C117.896 14.4291 117.959 14.1737 118.086 13.9497C118.213 13.7256 118.39 13.5493 118.619 13.4224C118.847 13.2954 119.109 13.2312 119.403 13.2312C119.697 13.2312 119.951 13.2954 120.18 13.4224C120.408 13.5493 120.588 13.7271 120.716 13.9541C120.845 14.1812 120.909 14.4366 120.909 14.7234C120.909 15.0102 120.845 15.2596 120.716 15.4867V15.4852Z" fill="white"/>
<path d="M120.027 14.6815C120.15 14.5919 120.211 14.4724 120.211 14.3246C120.211 14.1767 120.151 14.0512 120.032 13.9616C119.912 13.872 119.739 13.8271 119.512 13.8271H118.712V15.5001H119.098V14.8354H119.309L119.818 15.5001H120.293L119.736 14.7951C119.854 14.7727 119.954 14.7353 120.029 14.68L120.027 14.6815ZM119.451 14.5337H119.098V14.1244H119.464C119.573 14.1244 119.657 14.1408 119.715 14.1752C119.774 14.2095 119.803 14.2618 119.803 14.3335C119.803 14.4007 119.772 14.4515 119.712 14.4844C119.651 14.5187 119.564 14.5352 119.451 14.5352V14.5337Z" fill="white"/>
</g>
<defs>
<clipPath id="clip0_11_49">
<rect width="123" height="33.6455" fill="white"/>
</clipPath>
</defs>
</svg>
